# xmcd
#
# Track frame offsets:
#	150
#	14312
#	34336
#	50318
#	63953
#	79186
#	98806
#	121970
#	141884
#	160003
#	181639
#	197425
#
# Disc length: 2899 seconds
#
# Revision: 0
# Processed by: cddbd v1.5.1PL2 Copyright (c) Steve Scherf et al.
# Submitted via: EasyCDDAExtractor 4.6.9.1
#
DISCID=900b510c
DTITLE=Brian Burns - Highways, Heartaches, And Honky-Tonks
DYEAR=1997
DGENRE=Country
TTITLE0=Highways, Heartaches, and Honky Tonks
TTITLE1=Lucy And Desi
TTITLE2=Montgomery Street (Where Did The Good Ones Go?)
TTITLE3=Whiskey-O
TTITLE4=If You Don't Believe I Love You (Ask My Wife)
TTITLE5=I Don't Live Here Anymore
TTITLE6=Mexico In Mind
TTITLE7=Little Angel Comes A-Walkin
TTITLE8=Commerce and Pearl
TTITLE9=Dallas After Midnight
TTITLE10=Fire Ants
TTITLE11=The Haunted Jukebox
EXTD=
EXTT0=
EXTT1=
EXTT2=
EXTT3=
EXTT4=
EXTT5=
EXTT6=
EXTT7=
EXTT8=
EXTT9=
EXTT10=
EXTT11=
PLAYORDER=
